<svg width="14" height="15" viewBox="0 0 14 15" fill="none" xmlns="http://www.w3.org/2000/svg" preserveAspectRatio="xMidYMid meet">
<path d="M11.959 6.66699C12.3729 6.66734 12.709 7.003 12.709 7.41699V12.75C12.709 13.3025 12.4892 13.8329 12.0986 14.2236C11.708 14.6143 11.1774 14.8339 10.625 14.834H2.625C2.07274 14.8339 1.54294 14.6141 1.15234 14.2236C0.761643 13.8329 0.541992 13.3025 0.541992 12.75V7.41699C0.541992 7.00278 0.877779 6.66699 1.29199 6.66699C1.70606 6.66717 2.04199 7.00289 2.04199 7.41699V12.75C2.04199 12.9047 2.10349 13.0537 2.21289 13.1631C2.32218 13.2722 2.47056 13.3339 2.625 13.334H10.625C10.7796 13.3339 10.9288 13.2724 11.0381 13.1631C11.1474 13.0537 11.209 12.9046 11.209 12.75V7.41699C11.209 7.00278 11.5448 6.66699 11.959 6.66699ZM6.65137 0.000976562C6.65756 0.00119358 6.66374 0.00158374 6.66992 0.00195312C6.70857 0.00423733 6.74635 0.00965825 6.7832 0.0175781C6.82208 0.0259306 6.86005 0.0381563 6.89746 0.0527344C6.90417 0.0553575 6.91135 0.056761 6.91797 0.0595703C7.00421 0.0960855 7.08497 0.149511 7.15527 0.219727L9.82129 2.88672C10.1142 3.17961 10.1142 3.65437 9.82129 3.94727C9.52837 4.23983 9.05353 4.24005 8.76074 3.94727L7.375 2.56152V9.41699C7.37482 9.83106 7.03911 10.167 6.625 10.167C6.21089 10.167 5.87518 9.83106 5.875 9.41699V2.55957L4.48828 3.94727C4.19543 4.23994 3.72059 4.23994 3.42773 3.94727C3.13522 3.6544 3.13511 3.17952 3.42773 2.88672L6.09473 0.219727L6.15137 0.167969C6.16119 0.15996 6.17249 0.15392 6.18262 0.146484C6.19908 0.134402 6.21595 0.123037 6.2334 0.112305C6.25758 0.0974394 6.28224 0.0841331 6.30762 0.0722656C6.32387 0.0646459 6.34056 0.0582204 6.35742 0.0517578C6.38474 0.0413184 6.41228 0.0325202 6.44043 0.0253906C6.46614 0.0188644 6.49186 0.0116051 6.51855 0.0078125C6.52247 0.00725471 6.52635 0.00635518 6.53027 0.00585938C6.56128 0.00195328 6.59293 0 6.625 0C6.63383 0 6.64261 0.000674021 6.65137 0.000976562Z" fill="white"/>
</svg>
